<svg xmlns="http://www.w3.org/2000/svg" xmlns:xlink="http://www.w3.org/1999/xlink" viewBox="0 0 16 16"><defs><style>.cls-1{isolation:isolate;}.cls-2{fill:url(#linear-gradient);}.cls-3{fill:url(#linear-gradient-2);}.cls-4{fill:url(#linear-gradient-3);}.cls-11,.cls-12,.cls-13,.cls-5,.cls-9{opacity:0.5;}.cls-12,.cls-13,.cls-5,.cls-9{mix-blend-mode:color-dodge;}.cls-5{fill:url(#linear-gradient-4);}.cls-6{fill:url(#linear-gradient-5);}.cls-7{fill:url(#linear-gradient-6);}.cls-8{opacity:0.2;fill:url(#linear-gradient-7);}.cls-11,.cls-8{mix-blend-mode:lighten;}.cls-11,.cls-12,.cls-13,.cls-14,.cls-15,.cls-16,.cls-9{fill:none;stroke-linecap:round;stroke-linejoin:round;stroke-width:0.1px;}.cls-9{stroke:url(#linear-gradient-8);}.cls-10{font-size:0.98px;}.cls-10,.cls-17,.cls-18{font-family:MyriadHebrew-Regular, Myriad Hebrew;}.cls-11{stroke:url(#linear-gradient-9);}.cls-12{stroke:url(#linear-gradient-10);}.cls-13{stroke:url(#linear-gradient-11);}.cls-14{stroke:url(#linear-gradient-12);}.cls-15{stroke:url(#linear-gradient-13);}.cls-16{stroke:url(#linear-gradient-14);}.cls-17{font-size:1.31px;}.cls-18{font-size:1.75px;}</style><linearGradient id="linear-gradient" x1="198.41" y1="-171.85" x2="201.08" y2="-171.85" gradientTransform="matrix(-1, 0, 0, 1, 202.17, 180.84)" gradientUnits="userSpaceOnUse"><stop offset="0" stop-color="#3b48f7"/><stop offset="1" stop-color="#211e1e"/></linearGradient><linearGradient id="linear-gradient-2" x1="9.11" y1="5.48" x2="11.7" y2="5.48" gradientUnits="userSpaceOnUse"><stop offset="0" stop-color="#fff35a"/><stop offset="1" stop-color="#efc643"/></linearGradient><linearGradient id="linear-gradient-3" x1="1.09" y1="7.06" x2="11.96" y2="7.06" gradientUnits="userSpaceOnUse"><stop offset="0" stop-color="#01266f"/><stop offset="1" stop-color="#3b48f7"/></linearGradient><linearGradient id="linear-gradient-4" x1="6.79" y1="6.1" x2="6.79" y2="7.98" gradientUnits="userSpaceOnUse"><stop offset="0" stop-color="#3b48f7"/><stop offset="1" stop-color="#fdfdfd" stop-opacity="0"/></linearGradient><linearGradient id="linear-gradient-5" x1="-90.83" y1="9.75" x2="-88.55" y2="9.75" gradientTransform="matrix(-1, 0, 0, 1, -84.63, 0)" gradientUnits="userSpaceOnUse"><stop offset="0" stop-color="#211e1e"/><stop offset="1" stop-color="#c60102"/></linearGradient><linearGradient id="linear-gradient-6" x1="5.38" y1="9.3" x2="15.48" y2="9.3" gradientUnits="userSpaceOnUse"><stop offset="0" stop-color="#c60102"/><stop offset="1" stop-color="#ff0b0a"/></linearGradient><linearGradient id="linear-gradient-7" x1="10.58" y1="8.25" x2="10.58" y2="10.43" gradientUnits="userSpaceOnUse"><stop offset="0" stop-color="#fdfdfd"/><stop offset="1" stop-color="#fdfdfd" stop-opacity="0"/></linearGradient><linearGradient id="linear-gradient-8" x1="1.81" y1="7.89" x2="5.86" y2="7.89" xlink:href="#linear-gradient-4"/><linearGradient id="linear-gradient-9" x1="43.87" y1="-58.77" x2="47.92" y2="-58.77" gradientTransform="translate(55.67 -52.67) rotate(180)" xlink:href="#linear-gradient-7"/><linearGradient id="linear-gradient-10" x1="6.09" y1="10.35" x2="10.14" y2="10.35" xlink:href="#linear-gradient-7"/><linearGradient id="linear-gradient-11" x1="149.12" y1="15.71" x2="153.17" y2="15.71" gradientTransform="translate(164 24) rotate(180)" xlink:href="#linear-gradient-7"/><linearGradient id="linear-gradient-12" x1="6.06" y1="5.21" x2="9.17" y2="5.21" xlink:href="#linear-gradient-2"/><linearGradient id="linear-gradient-13" x1="5.97" y1="5.43" x2="9.08" y2="5.43" xlink:href="#linear-gradient-2"/><linearGradient id="linear-gradient-14" x1="5.89" y1="5.66" x2="9" y2="5.66" xlink:href="#linear-gradient-2"/></defs><g class="cls-1"><g id="Layer_1" data-name="Layer 1"><polygon class="cls-2" points="2.99 9.76 3.76 8.23 1.09 8.23 2.99 9.76"/><polygon class="cls-3" points="11.48 5.91 9.11 5.91 9.34 5.05 11.7 5.05 11.48 5.91"/><polygon class="cls-4" points="5.83 7.7 11.48 7.7 11.96 5.88 1.71 5.88 1.09 8.23 5.69 8.23 5.83 7.7"/><path class="cls-5" d="M5.83,7.7h5.11A.86.86,0,0,0,11.28,7a.88.88,0,0,0-.89-.88H3.18a.88.88,0,0,0,0,1.76h2.6Z"/><polygon class="cls-6" points="5.38 10.57 6.2 8.93 3.92 8.93 5.38 10.57"/><polygon class="cls-7" points="14.77 10.57 5.38 10.57 6.08 8.04 15.48 8.04 14.77 10.57"/><path class="cls-8" d="M14.9,9.31a1,1,0,0,1-1,1H7.27a1,1,0,0,1-1-1h0a1,1,0,0,1,1-1h6.61a1,1,0,0,1,1,1Z"/><line class="cls-9" x1="5.81" y1="7.89" x2="1.86" y2="7.89"/><text class="cls-10" transform="translate(9.41 5.82)">JRC</text><line class="cls-11" x1="7.79" y1="6.11" x2="11.75" y2="6.11"/><line class="cls-12" x1="10.09" y1="10.35" x2="6.14" y2="10.35"/><line class="cls-13" x1="10.87" y1="8.29" x2="14.83" y2="8.29"/><line class="cls-14" x1="9.12" y1="5.21" x2="6.11" y2="5.21"/><line class="cls-15" x1="9.03" y1="5.43" x2="6.01" y2="5.43"/><line class="cls-16" x1="8.95" y1="5.66" x2="5.94" y2="5.66"/><text class="cls-17" transform="translate(3.19 7.4)">BANGLADESH</text><text class="cls-18" transform="translate(6.28 9.97)">NEW PAPER</text></g></g></svg>